<svg width="20" height="20" viewBox="0 0 20 20" fill="none" xmlns="http://www.w3.org/2000/svg">
<path d="M10.7467 3.01583C10.8336 3.15694 10.861 3.32683 10.8227 3.48811C10.7844 3.64939 10.6836 3.78886 10.5425 3.87583C10.4014 3.9628 10.2315 3.99014 10.0702 3.95186C9.90893 3.91357 9.76947 3.81278 9.6825 3.67166L9.67 3.65666C9.63271 3.61773 9.58937 3.58509 9.54166 3.55999C9.41916 3.49166 9.15166 3.39333 8.65416 3.48416C8.31416 3.54666 8.1375 3.76249 8.02916 4.03999C7.96301 4.21397 7.92503 4.39739 7.91666 4.58333V5.62499C7.91666 5.84601 8.00446 6.05797 8.16074 6.21425C8.31702 6.37053 8.52898 6.45833 8.75 6.45833H8.95833C9.14304 6.45828 9.3225 6.39687 9.46852 6.28374C9.61453 6.17061 9.71882 6.01217 9.765 5.83333H9.375C9.29292 5.83333 9.21165 5.81716 9.13582 5.78575C9.05999 5.75434 8.99109 5.7083 8.93306 5.65027C8.87502 5.59223 8.82898 5.52333 8.79757 5.4475C8.76616 5.37168 8.75 5.2904 8.75 5.20833C8.75 5.12625 8.76616 5.04498 8.79757 4.96915C8.82898 4.89332 8.87502 4.82442 8.93306 4.76638C8.99109 4.70835 9.05999 4.66231 9.13582 4.6309C9.21165 4.59949 9.29292 4.58333 9.375 4.58333H10.4167C10.5824 4.58333 10.7414 4.64917 10.8586 4.76638C10.9758 4.88359 11.0417 5.04257 11.0417 5.20833V5.62499C11.0417 5.89858 10.9878 6.16949 10.8831 6.42225C10.7784 6.67501 10.6249 6.90468 10.4315 7.09813C10.238 7.29159 10.0083 7.44504 9.75559 7.54974C9.50283 7.65444 9.23192 7.70833 8.95833 7.70833H8.75C8.19746 7.70833 7.66756 7.48883 7.27686 7.09813C6.88616 6.70743 6.66666 6.17753 6.66666 5.62499V4.54916L6.67 4.48249C6.67277 4.42694 6.68 4.35388 6.69166 4.26333C6.71583 4.08666 6.76416 3.84333 6.86583 3.58499C7.07 3.06249 7.51833 2.42166 8.42833 2.25416C9.18916 2.11499 9.755 2.24749 10.1517 2.46916C10.3433 2.57666 10.4842 2.69833 10.5792 2.79999C10.637 2.86305 10.69 2.93047 10.7375 3.00166L10.7425 3.00999L10.745 3.01333L10.7467 3.01583ZM3.94 2.55083C4.43666 1.94749 5.41666 2.29916 5.41666 3.08083V5.41666H5.625C5.79076 5.41666 5.94973 5.48251 6.06694 5.59972C6.18415 5.71693 6.25 5.8759 6.25 6.04166C6.25 6.20742 6.18415 6.36639 6.06694 6.4836C5.94973 6.60081 5.79076 6.66666 5.625 6.66666H5.41666V7.08333C5.41666 7.24909 5.35082 7.40806 5.23361 7.52527C5.1164 7.64248 4.95742 7.70833 4.79166 7.70833C4.6259 7.70833 4.46693 7.64248 4.34972 7.52527C4.23251 7.40806 4.16666 7.24909 4.16666 7.08333V6.66666H2.66916C1.82416 6.66666 1.36083 5.68333 1.8975 5.03083L3.94 2.55083ZM4.16666 5.41666V4.24166L3.19916 5.41666H4.16666ZM16.6667 4.99999C16.8877 4.99999 17.0996 5.08779 17.2559 5.24407C17.4122 5.40035 17.5 5.61231 17.5 5.83333V16.6667C17.5 16.8877 17.4122 17.0996 17.2559 17.2559C17.0996 17.4122 16.8877 17.5 16.6667 17.5C16.4457 17.5 16.2337 17.4122 16.0774 17.2559C15.9211 17.0996 15.8333 16.8877 15.8333 16.6667V5.83333C15.8333 5.61231 15.9211 5.40035 16.0774 5.24407C16.2337 5.08779 16.4457 4.99999 16.6667 4.99999ZM13.3333 7.49999C13.7933 7.49999 14.1667 7.87166 14.1667 8.32916V16.6708C14.1667 17.1292 13.7933 17.5 13.3333 17.5C12.8725 17.5 12.5 17.1283 12.5 16.6708V8.32916C12.5 7.87083 12.8725 7.49999 13.3333 7.49999ZM10 9.99999C10.221 9.99999 10.433 10.0878 10.5893 10.2441C10.7455 10.4004 10.8333 10.6123 10.8333 10.8333V16.6667C10.8333 16.8877 10.7455 17.0996 10.5893 17.2559C10.433 17.4122 10.221 17.5 10 17.5C9.77898 17.5 9.56702 17.4122 9.41074 17.2559C9.25446 17.0996 9.16666 16.8877 9.16666 16.6667V10.8333C9.16666 10.6123 9.25446 10.4004 9.41074 10.2441C9.56702 10.0878 9.77898 9.99999 10 9.99999ZM6.66666 12.5C7.12666 12.5 7.5 12.8708 7.5 13.3283V16.6717C7.49967 16.7808 7.47785 16.8887 7.4358 16.9894C7.39374 17.0901 7.33227 17.1815 7.25489 17.2584C7.1775 17.3353 7.08573 17.3963 6.9848 17.4377C6.88387 17.4792 6.77577 17.5003 6.66666 17.5C6.20583 17.5 5.83333 17.1292 5.83333 16.6717V13.3283C5.83366 13.2192 5.85547 13.1112 5.89753 13.0106C5.93959 12.9099 6.00106 12.8185 6.07844 12.7416C6.15582 12.6647 6.2476 12.6037 6.34853 12.5623C6.44945 12.5208 6.55756 12.4997 6.66666 12.5ZM3.33333 15C3.79333 15 4.16666 15.3667 4.16666 15.82V16.68C4.16601 16.7886 4.14391 16.896 4.10164 16.9961C4.05936 17.0962 3.99775 17.1869 3.92032 17.2631C3.84289 17.3393 3.75118 17.3994 3.65045 17.4401C3.54972 17.4807 3.44195 17.5011 3.33333 17.5C2.8725 17.5 2.5 17.1333 2.5 16.68V15.82C2.50065 15.7114 2.52275 15.6039 2.56502 15.5039C2.6073 15.4038 2.66892 15.3131 2.74634 15.2369C2.82377 15.1607 2.91548 15.1006 3.01621 15.0599C3.11694 15.0193 3.22471 14.9989 3.33333 15Z" fill="white"/>
</svg>
