<svg width="20" height="18" viewBox="0 0 20 18" fill="none" xmlns="http://www.w3.org/2000/svg">
<path d="M8 12.8571L13.19 9L8 5.14286V12.8571ZM19.56 2.79C19.69 3.39429 19.78 4.20429 19.84 5.23286C19.91 6.26143 19.94 7.14857 19.94 7.92L20 9C20 11.8157 19.84 13.8857 19.56 15.21C19.31 16.3671 18.73 17.1129 17.83 17.4343C17.36 17.6014 16.5 17.7171 15.18 17.7943C13.88 17.8843 12.69 17.9229 11.59 17.9229L10 18C5.81 18 3.2 17.7943 2.17 17.4343C1.27 17.1129 0.69 16.3671 0.44 15.21C0.31 14.6057 0.22 13.7957 0.16 12.7671C0.0900001 11.7386 0.0599999 10.8514 0.0599999 10.08L0 9C0 6.18429 0.16 4.11429 0.44 2.79C0.69 1.63286 1.27 0.887143 2.17 0.565714C2.64 0.398571 3.5 0.282857 4.82 0.205714C6.12 0.115714 7.31 0.0771428 8.41 0.0771428L10 0C14.19 0 16.8 0.205714 17.83 0.565714C18.73 0.887143 19.31 1.63286 19.56 2.79Z" fill="#F8F8F8"/>
</svg>
