<svg width="20" height="20" viewBox="0 0 20 20" fill="none" xmlns="http://www.w3.org/2000/svg">
<path d="M17.0854 2.91005C16.1639 1.98416 15.0664 1.25002 13.8568 0.750416C12.6472 0.250812 11.3498 -0.00426317 10.0402 5.38951e-05C4.55276 5.38951e-05 0.0804022 4.45005 0.0804022 9.91005C0.0804022 11.6601 0.542714 13.3601 1.40704 14.8601L0 20.0001L5.27638 18.6201C6.73367 19.4101 8.37186 19.8301 10.0402 19.8301C15.5276 19.8301 20 15.3801 20 9.92005C20 7.27005 18.9648 4.78005 17.0854 2.91005ZM10.0402 18.1501C8.55276 18.1501 7.09548 17.7501 5.81909 17.0001L5.51759 16.8201L2.38191 17.6401L3.21608 14.6001L3.01508 14.2901C2.18849 12.9771 1.74967 11.4593 1.74874 9.91005C1.74874 5.37005 5.46734 1.67005 10.0301 1.67005C12.2412 1.67005 14.3216 2.53005 15.8794 4.09005C16.6509 4.85392 17.2622 5.7626 17.678 6.76338C18.0938 7.76417 18.3057 8.83714 18.3015 9.92005C18.3216 14.4601 14.603 18.1501 10.0402 18.1501ZM14.5829 11.9901C14.3317 11.8701 13.1055 11.2701 12.8844 11.1801C12.6533 11.1001 12.4925 11.0601 12.3216 11.3001C12.1508 11.5501 11.6784 12.1101 11.5377 12.2701C11.397 12.4401 11.2462 12.4601 10.995 12.3301C10.7437 12.2101 9.9397 11.9401 8.99497 11.1001C8.25126 10.4401 7.75879 9.63005 7.60804 9.38005C7.46734 9.13005 7.58794 9.00005 7.71859 8.87005C7.82914 8.76005 7.96985 8.58005 8.09045 8.44005C8.21105 8.30005 8.26131 8.19005 8.34171 8.03005C8.42211 7.86005 8.38191 7.72005 8.32161 7.60005C8.26131 7.48005 7.75879 6.26005 7.55779 5.76005C7.35678 5.28005 7.14573 5.34005 6.99497 5.33005H6.51256C6.34171 5.33005 6.0804 5.39005 5.84925 5.64005C5.62814 5.89005 4.98492 6.49005 4.98492 7.71005C4.98492 8.93005 5.8794 10.1101 6 10.2701C6.1206 10.4401 7.75879 12.9401 10.2513 14.0101C10.8442 14.2701 11.3065 14.4201 11.6683 14.5301C12.2613 14.7201 12.804 14.6901 13.2362 14.6301C13.7186 14.5601 14.7136 14.0301 14.9146 13.4501C15.1256 12.8701 15.1256 12.3801 15.0553 12.2701C14.9849 12.1601 14.8342 12.1101 14.5829 11.9901Z" fill="#F8F8F8"/>
</svg>
